<?xml version="1.0" encoding="utf-8"?>
<!-- Generator: Adobe Illustrator 25.2.1, SVG Export Plug-In . SVG Version: 6.00 Build 0)  -->
<svg version="1.1" id="Layer_1" xmlns="http://www.w3.org/2000/svg" xmlns:xlink="http://www.w3.org/1999/xlink" x="0px" y="0px"
	 viewBox="0 0 800 580" style="enable-background:new 0 0 800 580;" xml:space="preserve">
<style type="text/css">
	.st0{fill:#0066B3;}
	.st1{fill-rule:evenodd;clip-rule:evenodd;fill:#CE181E;}
</style>
<g>
	<path class="st0" d="M92.26,439.14v23.23h-66.7c-1.39,0-2.08,0.74-2.08,2.21v9.99h68.38v16.87H23.49v10.64
		c0,1.56,0.69,2.34,2.08,2.34h66.7v22.45H12.33c-8.22,0-12.33-4.06-12.33-12.2v-63.71c0-7.87,4.15-11.81,12.46-11.81H92.26z"/>
	<path class="st0" d="M275.95,504.41v22.45h-77.34c-3.46,0-6.27-0.52-8.43-1.56c-2.16-1.04-3.89-2.42-5.19-4.15
		c-2.16-2.85-3.24-6.01-3.24-9.47c0-1.55,0.3-3.16,0.91-4.8c0.61-1.64,1.56-3.24,2.85-4.8c0.61-0.69,1.34-1.36,2.21-2.01
		c0.86-0.65,2.16-1.58,3.89-2.79l47.1-33.09c0.23-0.14,0.39-0.34,0.39-0.78c0-0.69-0.35-1.04-1.04-1.04h-55.67v-23.23h75.65
		c3.29,0,5.92,0.43,7.91,1.3c1.99,0.87,3.63,1.99,4.93,3.37s2.29,2.92,2.99,4.61c0.69,1.68,1.04,3.35,1.04,5
		c0,2.25-0.48,4.46-1.43,6.62c-0.43,1.04-1.06,2.06-1.88,3.05c-0.82,1-2.23,2.23-4.22,3.7l-47.36,35.29
		c-0.52,0.43-0.78,0.82-0.78,1.17c0,0.78,0.52,1.17,1.56,1.17H275.95z"/>
	<path class="st0" d="M402.42,526.86c-7.87,0-14.71-1.28-20.5-3.83c-5.8-2.55-10.73-6.03-14.79-10.44
		c-3.55-3.89-6.32-8.35-8.31-13.36c-1.99-5.02-2.98-10.42-2.98-16.22c0-6.4,1.25-12.37,3.76-17.91c2.51-5.54,5.97-10.34,10.38-14.4
		c3.89-3.63,8.5-6.46,13.82-8.5c5.32-2.03,11.53-3.05,18.62-3.05h47.36v23.23h-47.36c-3.98,0-7.27,0.52-9.86,1.56
		c-2.6,1.04-4.85,2.42-6.75,4.15c-1.99,1.9-3.57,4.15-4.74,6.75c-1.17,2.6-1.75,5.37-1.75,8.31c0,2.68,0.47,5.21,1.43,7.59
		c0.95,2.38,2.29,4.48,4.02,6.29c1.9,2.08,4.28,3.79,7.14,5.13c2.85,1.34,6.36,2.01,10.51,2.01h22.45c1.12,0,1.69-0.61,1.69-1.82
		v-23.49h23.36v42.43c0,3.72-1.86,5.58-5.58,5.58H402.42z"/>
	<g>
		<rect x="534.6" y="466.06" class="st0" width="23.61" height="60.79"/>
		<rect x="534.6" y="439.14" class="st0" width="23.61" height="19.36"/>
	</g>
	<path class="st0" d="M670.49,526.86c-5.36,0-9.88-0.58-13.56-1.75c-3.68-1.17-6.62-2.94-8.82-5.32c-2.21-2.38-3.79-5.36-4.74-8.95
		c-0.96-3.59-1.43-7.76-1.43-12.52v-59.17h23.61v56.96c0,3.2,0.54,5.39,1.62,6.55c1.08,1.17,3.13,1.75,6.16,1.75h60.86v22.45H670.49
		z"/>
	<path class="st0" d="M327.96,262.07c-15.98-22.99-10.42-73.38,21.25-93.55c29.87-19.03,18.19-47.23,18.19-47.23
		s29.05,16.95,18.25,60.81c-10.8,43.87,13.48,49.42,13.48,49.42s-7.37-5.98-8.45-24.02c-1.08-18.04,16.8-31.38,16.8-31.38
		c-7.8,35.51,33.41,50.56,35.9,92.17c2.5,41.61-40.96,57.07-40.96,57.07s-0.3-24.51-22.16-38.38
		c-21.86-13.87-17.01-49.79-17.01-49.79c-24.43,40.6-7.97,91-7.97,91s-12.69-16.53-24.98-17.19c-11.77-0.63-19.12-16.96-19.12-16.96
		c-0.59,19.31,19.96,30.92,19.96,30.92c-92.71-36.48-20.8-103.29-20.8-103.29C303.61,255.35,327.96,262.07,327.96,262.07z"/>
	<path class="st1" d="M351.98,37.39H0v276.07c0,0-0.2,85.02,84.96,85.02s275.66,0,275.66,0s-46.17-87.51-143.83-87.51h-90.37
		c0,0-32.52,0.25-32.52-35.64V131.58h143.48c0,0-108.33,62.71-108.33,161.49c0,0,17.32-33.22,94.45-73.89S351.98,92.88,351.98,37.39
		z"/>
	<path class="st1" d="M382.23,37.39H734.2v276.07c0,0,0.2,85.02-84.96,85.02s-275.66,0-275.66,0s46.17-87.51,143.83-87.51h90.37
		c0,0,32.52,0.25,32.52-35.64V131.58H496.83c0,0,108.33,62.71,108.33,161.49c0,0-17.32-33.22-94.45-73.89S382.23,92.88,382.23,37.39
		z"/>
</g>
</svg>
